<svg class="icon icon--theme01 icon--hide" xmlns="http://www.w3.org/2000/svg" viewBox="0 0 48 48" width="48" height="48"><path fill="none" d="M0 0h48v48H0z"/><path d="M44.9 20.2a23.4 23.4 0 00-2.9-4.1 23.9 23.9 0 00-2.3-2.2l-4.2 4.3a16.1 16.1 0 013.8 4.4l.5.7c0 .1 0 .2.1.2l.2.5a10 10 0 01-3.5 12.4 25.8 25.8 0 005.4-4.5 23.4 23.4 0 002.9-4.1 7.9 7.9 0 000-7.6zm-32.3-9.3l-.6.3-.6.4A10 10 0 007.9 24 17.9 17.9 0 0124 14h1.1l2.8.5 4.8-4.8A22.9 22.9 0 0024 8a23.3 23.3 0 00-11.4 2.9z" fill="currentColor" class="icon__color--secondary"/><path d="M12.5 29.8a16.1 16.1 0 01-3.8-4.4l-.4-.6-.3-.7h-.1a10 10 0 013.5-12.4A25.8 25.8 0 006 16.1a23.4 23.4 0 00-2.9 4.1 7.9 7.9 0 000 7.6 24.1 24.1 0 002.9 4 25 25 0 002.3 2.3zM24 34h-1.1l-2.8-.4 2.7-2.7H24a7 7 0 007-7 4.9 4.9 0 00-.1-1.2l4.6-4.6 4.2-4.3 6-5.9H40L8 40h5.7l1.6-1.7A22.9 22.9 0 0024 40a23.3 23.3 0 0011.4-2.9l.6-.3.6-.4A10 10 0 0040.1 24 18 18 0 0124 34zm1.2-16.9H24a7 7 0 00-7 7c0 .4.1.8.1 1.2z" fill="currentColor" class="icon__color--primary"/></svg>