<svg class="icon icon--theme01 icon--upload" xmlns="http://www.w3.org/2000/svg" viewBox="0 0 48 48" width="48" height="48"><path d="M12.2 36.6a5 5 0 01-5-5.1v-5h5zm23.6 0a5 5 0 005-5.1v-5h-5z" fill="currentColor" class="icon__color--secondary"/><path d="M40.8 36.6v-5.1a5 5 0 01-5 5.1H12.2a5 5 0 01-5-5.1v5.1a5 5 0 005 5h23.6a5 5 0 005-5z" fill="currentColor" class="icon__color--primary"/><path fill="currentColor" class="icon__color--secondary" d="M21.6 9.2h5.1v20.16h-5.1z"/><path d="M0 48h48V0H0z" fill="none"/><path d="M20.9 9.8a5.1 5.1 0 00-4 1.9.1.1 0 01-.1.1l-4 5.1 4 3.1 2.5-3.3 4.6-5.9a4.7 4.7 0 00-3-1z" fill="currentColor" class="icon__color--secondary"/><path d="M28 7.6l7.3 9.3-4 3.1-6.5-8.3-.9-.9a4.7 4.7 0 00-3-1 5.1 5.1 0 00-4 1.9L20 7.6a5.1 5.1 0 018 0z" fill="currentColor" class="icon__color--primary"/></svg>