<svg class="icon icon--theme01 icon--trash" xmlns="http://www.w3.org/2000/svg" viewBox="0 0 48 48" width="48" height="48"><path fill="none" d="M0 0h48v48H0z"/><path d="M23.5 42h-6a6 6 0 01-6-5.2V36L9.3 20h6l1.4 10.1.8 5.9v.7a5.9 5.9 0 006 5.3z" fill="currentColor" class="icon__color--primary"/><rect x="8.5" y="7.9" width="32" height="6" rx="1.5" transform="rotate(7.5 24.448 10.656)" fill="currentColor" class="icon__color--primary"/><path d="M22.488 3.663l5.949.784a1 1 0 01.86 1.122l-.391 2.974-7.932-1.044.392-2.975a1 1 0 011.122-.86zM30.5 36v.7a5.9 5.9 0 01-6 5.3h-1a5.9 5.9 0 01-5.9-5.2V36z" fill="currentColor" class="icon__color--secondary"/><path d="M38.7 20l-2.1 16v.8a6 6 0 01-6 5.2h-6a5.9 5.9 0 005.9-5.2V36l.8-5.9L32.7 20z" fill="currentColor" class="icon__color--primary"/></svg>