<svg class="icon icon--theme01 icon--active-sorts" xmlns="http://www.w3.org/2000/svg" width="30" height="30" viewBox="0 0 30 30"><g data-name="Group 3671"><g data-name="Group 3668"><path data-name="Path 1727" d="M20.825 24.278l3.887-3.887a2.916 2.916 0 01-4.692-.807 2.842 2.842 0 01-.282-1.253V4.892h-3.887v17.326a2.914 2.914 0 004.974 2.06z" fill="currentColor" class="icon__color--primary"/><path data-name="Path 1728" d="M24.712 20.391l1.992-1.992-2.75-2.75-3.935 3.935a2.916 2.916 0 004.692.807z" fill="currentColor" class="icon__color--secondary"/></g><g data-name="Group 3669"><path data-name="Path 1729" d="M8.046 5.737L4.159 9.624a2.917 2.917 0 014.694.807 2.869 2.869 0 01.281 1.253v13.439h3.887V7.797a2.915 2.915 0 00-4.975-2.06z" fill="currentColor" class="icon__color--primary"/><path data-name="Path 1730" d="M4.159 9.624l-1.992 1.992 2.751 2.75 3.936-3.935a2.917 2.917 0 00-4.694-.807z" fill="currentColor" class="icon__color--secondary"/></g><g data-name="Group 3670"><path data-name="Path 1731" d="M0 30h30V0H0z" fill="none"/></g></g></svg>