<svg class="icon icon--theme01 icon--print" xmlns="http://www.w3.org/2000/svg" viewBox="0 0 48 48" width="48" height="48"><path fill="none" d="M0 0h48v48H0z"/><path d="M42 20v4a6 6 0 00-6-6H26V8a6 6 0 00-6-6h4a8 8 0 018 8v2h2a8 8 0 018 8z" fill="currentColor" class="icon__color--secondary"/><path d="M36 18v18H16V8h10a6 6 0 00-6-6H10v40h32V24a6 6 0 00-6-6z" fill="currentColor" class="icon__color--primary"/><path fill="currentColor" class="icon__color--secondary" d="M20 28h12v4H20zm0-6h12v4H20z"/></svg>