<svg class="icon-simple icon-simple--theme01 icon-simple--hide" xmlns="http://www.w3.org/2000/svg" viewBox="0 0 24 24" width="24" height="24"><path fill="none" d="M0 0h24v24H0z"/><path d="M21.1 8.1a6.8 6.8 0 00-1.2-1.2L22.8 4H20L4 20h2.8l.9-.9a11.2 11.2 0 004.4.9 11.9 11.9 0 009-4.1 10.9 10.9 0 002.3-3.9 10.9 10.9 0 00-2.3-3.9zm-9 8.9a6.4 6.4 0 01-2-.3l1.3-1.3h.7a3.5 3.5 0 003.5-3.4v-.7L17.8 9a8.9 8.9 0 012.4 3 8.9 8.9 0 01-8.1 5zm-5.8-2.1A8.9 8.9 0 014.1 12a8.8 8.8 0 018-5l1.9.2 2.4-2.4a12.2 12.2 0 00-4.3-.8 11.9 11.9 0 00-9 4.1A10.9 10.9 0 00.8 12a10.9 10.9 0 002.3 3.9L4.2 17z" fill="currentColor"/><path d="M8.6 12c0 .2.1.3.1.5l3.9-4h-.5A3.5 3.5 0 008.6 12z" fill="currentColor"/></svg>