<svg class="icon icon--theme01 icon--change" xmlns="http://www.w3.org/2000/svg" viewBox="0 0 48 48" width="48" height="48"><path fill="none" d="M48 0v48H0V0z"/><path d="M0 48h48V0H0z" fill="none"/><path d="M22 18V4H10a6 6 0 00-6 6v28a6 6 0 006 6h12V30l6-6z" fill="currentColor" class="icon__color--primary"/><path d="M38 38a6 6 0 01-6 6h-6v-6zm0-28a6 6 0 00-6-6h-6v6z" fill="currentColor" class="icon__color--secondary"/><path d="M38 4h-6a6 6 0 016 6v28a6 6 0 01-6 6h6a6 6 0 006-6V10a6 6 0 00-6-6z" fill="currentColor" class="icon__color--primary"/></svg>