<svg class="icon icon--theme01 icon--show" xmlns="http://www.w3.org/2000/svg" viewBox="0 0 48 48" width="48" height="48"><path fill="none" d="M0 0h48v48H0z"/><path d="M44.9 27.8a23.4 23.4 0 01-2.9 4.1 25.8 25.8 0 01-5.4 4.5A10 10 0 0040.1 24l-.2-.5c-.1 0-.1-.1-.1-.2l-.5-.7A17.9 17.9 0 0025.1 14H24A17.9 17.9 0 007.9 24a10 10 0 013.5-12.4l.6-.4.6-.3A23.3 23.3 0 0124 8a23.8 23.8 0 0118 8.1 23.4 23.4 0 012.9 4.1 7.9 7.9 0 010 7.6z" fill="currentColor" class="icon__color--secondary"/><path d="M36.6 36.4l-.6.4-.6.3A23.3 23.3 0 0124 40a23.9 23.9 0 01-18-8.2 24.1 24.1 0 01-2.9-4 7.9 7.9 0 010-7.6A23.4 23.4 0 016 16.1a25.8 25.8 0 015.4-4.5A10 10 0 007.9 24H8l.3.6.4.6A18.1 18.1 0 0022.9 34H24a18 18 0 0016.1-10 10 10 0 01-3.5 12.4z" fill="currentColor" class="icon__color--primary"/><circle cx="24" cy="24" r="7" fill="currentColor" class="icon__color--primary"/></svg>