<svg class="icon icon--theme01 icon--add" xmlns="http://www.w3.org/2000/svg" viewBox="0 0 48 48" width="48" height="48"><path fill="none" d="M0 0h48v48H0z"/><path d="M28 36v12h-8V28a8 8 0 00-8-8 16 16 0 0116 16z" fill="currentColor" class="icon__color--primary"/><path d="M20 28H0v-8h12a8 8 0 018 8z" fill="currentColor" class="icon__color--secondary"/><path d="M20 12V0h8v20a8 8 0 008 8 16 16 0 01-16-16z" fill="currentColor" class="icon__color--primary"/><path d="M28 20h20v8H36a8 8 0 01-8-8z" fill="currentColor" class="icon__color--secondary"/></svg>