<svg class="icon icon--theme01 icon--previous" xmlns="http://www.w3.org/2000/svg" viewBox="0 0 48 48" width="48" height="48"><path fill="none" d="M0 0h48v48H0z"/><path d="M17.8 23.8l12.6-9.7 5.2-4-4.9-6.3-11.4 8.9h-.2a8 8 0 00-3 6.3 7.62 7.62 0 001.7 4.8z" fill="currentColor" class="icon__color--secondary"/><path d="M11.22 28.92A8 8 0 0112.7 17.7l6.4-5a8 8 0 00-3 6.3 7.62 7.62 0 001.7 4.8 6.88 6.88 0 001.4 1.5l16.4 12.6-4.9 6.3-18-13.8a8 8 0 01-1.48-1.48z" fill="currentColor" class="icon__color--primary"/></svg>