<svg class="icon icon--theme01 icon--move-change" xmlns="http://www.w3.org/2000/svg" viewBox="0 0 48 48" width="48" height="48"><path fill="none" d="M0 0h48v48H0z"/><path d="M7 28h15v20H7a3 3 0 01-3-3V31a3 3 0 013-3z" fill="currentColor" class="icon__color--primary"/><path d="M38 42a6 6 0 01-6 6h-6v-6zm0-8H26v-6h6a6 6 0 016 6z" fill="currentColor" class="icon__color--secondary"/><path d="M38 28h-6a6 6 0 016 6v8a6 6 0 01-6 6h6a6 6 0 006-6v-8a6 6 0 00-6-6zm3.9-14.2l-8-8a6 6 0 011.3 6.5 5.7 5.7 0 01-3 3.1 5.1 5.1 0 01-2.5.6H4v8h33.7a6 6 0 004.2-10.2z" fill="currentColor" class="icon__color--primary"/><path d="M33.9 5.8l-4.1-4.2-5.7 5.7 8.1 8.1a5.7 5.7 0 003-3.1 6 6 0 00-1.3-6.5z" fill="currentColor" class="icon__color--secondary"/></svg>