<svg class="icon icon--theme01 icon--play" xmlns="http://www.w3.org/2000/svg" viewBox="0 0 48 48" width="48" height="48"><path fill="none" d="M48 24L12 3.2v41.6L48 24z"/><circle cx="24" cy="24" r="24" fill="none"/><path d="M43.5 26a5.4 5.4 0 01-1.5 1.5L23.9 37.9l-.9.4a4.5 4.5 0 01-3-.4 4.3 4.3 0 01-2-3.5L36 24 18 13.6a4.3 4.3 0 012-3.5 4.1 4.1 0 013.9 0l12.2 7 5.9 3.4a4.1 4.1 0 011.5 5.5z" fill="currentColor" class="icon__color--primary"/><path d="M23.9 37.9L18 41.3a4 4 0 01-5.5-1.5 4.5 4.5 0 01-.5-1.9V10.1a4.5 4.5 0 01.5-1.9A4 4 0 0118 6.7l5.9 3.4a4.1 4.1 0 00-3.9 0 4.3 4.3 0 00-2 3.5v20.8a4.3 4.3 0 002 3.5 4.5 4.5 0 003 .4l.9-.4z" fill="currentColor" class="icon__color--secondary"/></svg>