<svg class="icon icon--theme01 icon--download" xmlns="http://www.w3.org/2000/svg" viewBox="0 0 48 48" width="48" height="48"><path d="M42.2 37.8A5.8 5.8 0 0038 36H10a6 6 0 00-6 6 5.6 5.6 0 001.8 4.2A5.6 5.6 0 0010 48h28a6 6 0 006-6 5.6 5.6 0 00-1.8-4.2zM38 45a3 3 0 113-3 2.9 2.9 0 01-3 3z" fill="currentColor" class="icon__color--primary"/><path d="M0 48h48V0H0z" fill="none"/><path d="M29 23.9a8 8 0 006.3-3h.1l8.8-11.6-6.3-4.9-4 5.2-9.7 12.6a7.6 7.6 0 004.8 1.7z" fill="currentColor" class="icon__color--secondary"/><path d="M17.6 27.3L3.8 9.3l6.3-4.9 12.6 16.4a6.7 6.7 0 001.5 1.4 7.6 7.6 0 004.8 1.7 8 8 0 006.3-3l-5 6.4a8 8 0 01-12.7 0z" fill="currentColor" class="icon__color--primary"/></svg>