<svg class="icon icon--theme01 icon--filter" xmlns="http://www.w3.org/2000/svg" viewBox="0 0 48 48" width="48" height="48"><path fill="none" d="M0 0h48v48H0z"/><path d="M40 13.7a5.6 5.6 0 01-1.7 4 5.5 5.5 0 01-4 1.6 5.8 5.8 0 01-4-1.7 5.4 5.4 0 00-4-1.6h-8.6a3.9 3.9 0 00-3.7 2.5 3.8 3.8 0 00.8 4.3l-4.5-4.5A7.9 7.9 0 018 12.7 4.7 4.7 0 0112.7 8h21.6a5.7 5.7 0 013.6 1.3.8.8 0 01.4.4 5.3 5.3 0 011.7 4z" fill="currentColor" class="icon__color--primary"/><path d="M28 28v12h-8V29.7a4 4 0 00-1.2-2.9l-4-4a3.8 3.8 0 01-.8-4.3 3.9 3.9 0 013.7-2.5h1.6l3.3 3.2 3.1 3.2A7.9 7.9 0 0128 28z" fill="currentColor" class="icon__color--secondary"/></svg>