<svg class="icon-simple icon-simple--theme01 icon-simple--info" xmlns="http://www.w3.org/2000/svg" viewBox="0 0 12 12" width="12" height="12"><g data-name="Group 748" fill="currentColor"><path data-name="Path 435" d="M6 11.998a6 6 0 116-6 6.007 6.007 0 01-6 6zM6 .683a5.316 5.316 0 105.317 5.315A5.322 5.322 0 006 .684z"/><path data-name="Path 436" d="M5.4 3.375a.573.573 0 01.15-.423.593.593 0 01.43-.147.58.58 0 01.421.147.568.568 0 01.15.423.556.556 0 01-.15.412.57.57 0 01-.421.151.583.583 0 01-.43-.151.56.56 0 01-.15-.412zm1.086 6.1H5.461V4.654h1.025z"/></g></svg>