<svg class="icon icon--theme01 icon--zero" xmlns="http://www.w3.org/2000/svg" viewBox="0 0 48 48" width="48" height="48"><path d="M37.3 24.3q0 10.3-3.3 15.3c-2.2 3.3-5.6 5-10.1 5s-7.7-1.7-9.9-5.2-3.4-8.4-3.4-15.1 1.1-12 3.3-15.3 5.5-5 10-5 7.8 1.7 10 5.2 3.4 8.5 3.4 15.1zm-20.3 0c0 5.4.5 9.2 1.6 11.5a5.8 5.8 0 0010.6 0c1.2-2.3 1.7-6.2 1.7-11.5s-.5-9.1-1.7-11.4a5.7 5.7 0 00-10.6-.1C17.5 15.1 17 19 17 24.3z" fill="currentColor" class="icon__color--primary"/><path fill="currentColor" class="icon__color--secondary" d="M8.814 4.979l34.507 34.506-4.228 4.229L4.586 9.207z"/><path d="M18.6 35.8a5.8 5.8 0 0010.6 0 18.5 18.5 0 001.4-5.1L17.4 17.5a45.2 45.2 0 00-.4 6.8c0 5.4.5 9.2 1.6 11.5z" fill="none"/><path d="M30.9 24.3c0-5.2-.5-9.1-1.7-11.4a5.7 5.7 0 00-10.6-.1 16.9 16.9 0 00-1.2 4.7l13.2 13.2a58.5 58.5 0 00.3-6.4z" fill="none"/><path d="M33.9 9.2C31.7 5.7 28.3 4 23.9 4s-7.8 1.7-10 5a13.5 13.5 0 00-1.7 3.4l5.2 5.1a16.9 16.9 0 011.2-4.7 5.7 5.7 0 0110.6.1c1.2 2.3 1.7 6.2 1.7 11.4a58.5 58.5 0 01-.3 6.4l5.2 5.2a37.6 37.6 0 001.5-11.6c0-6.6-1.1-11.7-3.4-15.1z" fill="currentColor" class="icon__color--secondary"/><path fill="none" d="M0 0h48v48H0z"/></svg>