<svg class="icon icon--theme01 icon--search" xmlns="http://www.w3.org/2000/svg" viewBox="0 0 48 48" width="48" height="48"><path fill="none" d="M0 0h48v48H0z"/><path d="M31.9 27.7l9.9 9.9a3.1 3.1 0 010 4.2 3 3 0 01-4.3 0L27.4 31.7a6 6 0 00-4.6-1.7 8.3 8.3 0 004.8-2.3 3 3 0 014.3 0z" fill="currentColor" class="icon__color--secondary"/><path d="M27.7 9.2a14 14 0 018.1 10.9 2.9 2.9 0 01-3.3 3.3 3 3 0 01-2.6-2.6 7.8 7.8 0 00-3.6-5.5 8 8 0 00-8.4-.2 8.1 8.1 0 00-1.6 12.6 7.9 7.9 0 006.3 2.3h.2a6 6 0 014.6 1.7l2.1 2.1-.6.4a14.5 14.5 0 01-11.7 1A14.1 14.1 0 0114.7 10a14.2 14.2 0 0113-.8z" fill="currentColor" class="icon__color--primary"/></svg>