<svg class="icon icon--theme01 icon--filter-remove" xmlns="http://www.w3.org/2000/svg" viewBox="0 0 48 48" width="48" height="48"><path fill="none" d="M0 0h48v48H0z"/><path d="M31.2 8l-6.1 8h-7.4a3.9 3.9 0 00-3.7 2.5 3.8 3.8 0 00.8 4.3l-4.5-4.5A7.9 7.9 0 018 12.7a4.4 4.4 0 011.4-3.3A4.4 4.4 0 0112.7 8zm8.8 5.7a5.6 5.6 0 01-1.7 4 5.5 5.5 0 01-4 1.6l-1.5-.2a6.4 6.4 0 01-2.5-1.5l-.9-.7 6.7-8.6a4.6 4.6 0 011.8 1 .8.8 0 01.4.4 3.1 3.1 0 01.9 1.1 5.5 5.5 0 01.8 2.9z" fill="currentColor" class="icon__color--primary"/><path d="M22.6 19.3l-4.9 6.4-2.9-2.9a3.8 3.8 0 01-.8-4.3 3.9 3.9 0 013.7-2.5h1.6l3.3 3.2z" fill="currentColor" class="icon__color--secondary"/><path d="M30.3 17.6a6.4 6.4 0 002.5 1.5L16.8 40h-5.1l17.7-23.1zm11-9.6l-2.1 2.8a3.1 3.1 0 00-.9-1.1.8.8 0 00-.4-.4 4.6 4.6 0 00-1.8-1l.2-.3z" fill="currentColor" class="icon__color--primary"/><path d="M28 28v12h-8v-4.2l7.7-10A7.8 7.8 0 0128 28z" fill="currentColor" class="icon__color--secondary"/></svg>