<svg class="icon icon--theme01 icon--status" xmlns="http://www.w3.org/2000/svg" viewBox="0 0 48 48" width="48" height="48"><path fill="none" d="M48 0v48H0V0z"/><path d="M48 0H0v48h48z" fill="none"/><rect x="21" y="28" width="6" height="6" rx="1.5" transform="rotate(-180 24 31)" fill="currentColor" class="icon__color--secondary"/><path d="M28 6v6.7a22.8 22.8 0 01-.2 2.6L26.3 24a2.3 2.3 0 01-2.3 2 2.3 2.3 0 01-2.3-2l-1.5-8.7a22.8 22.8 0 01-.2-2.6V6a2 2 0 012-2h4a2 2 0 012 2z" fill="currentColor" class="icon__color--secondary"/><path d="M10 38V4H4v34a6 6 0 006 6h6a6 6 0 01-6-6zM38 4h6v28a6 6 0 01-6 6z" fill="currentColor" class="icon__color--primary"/><path d="M44 32v6a6 6 0 01-6 6H16a6 6 0 01-6-6h28a6 6 0 006-6z" fill="currentColor" class="icon__color--secondary"/></svg>