<svg class="icon icon--theme01 icon--remove" xmlns="http://www.w3.org/2000/svg" viewBox="0 0 48 48" width="48" height="48"><path fill="none" d="M0 0h48v48H0z"/><path d="M12.7 18.3L4.2 9.9l5.7-5.7L24 18.3a7.9 7.9 0 0011.3 0 15.9 15.9 0 01-22.6 0z" fill="currentColor" class="icon__color--primary"/><path class="icon__color--secondary" d="M24 18.3L38.1 4.2l5.7 5.7-8.5 8.4a7.9 7.9 0 01-11.3 0z" fill="currentColor"/><path class="icon__color--primary" d="M35.3 28.9l8.5 8.5-5.7 5.6L24 28.9a8 8 0 00-11.3 0 15.9 15.9 0 0122.6 0z" fill="currentColor"/><path class="icon__color--secondary" d="M24 28.9L9.9 43l-5.7-5.6 8.5-8.5a8 8 0 0111.3 0z" fill="currentColor"/></svg>